<?xml version="1.0" encoding="UTF-8"?>
<!DOCTYPE svg PUBLIC "-//W3C//DTD SVG 1.1//EN" "http://www.w3.org/Graphics/SVG/1.1/DTD/svg11.dtd">
<!-- Creator: CorelDRAW 2021 (64-Bit) -->
<svg xmlns="http://www.w3.org/2000/svg" xml:space="preserve" width="375px" height="45px" version="1.1" style="shape-rendering:geometricPrecision; text-rendering:geometricPrecision; image-rendering:optimizeQuality; fill-rule:evenodd; clip-rule:evenodd"
viewBox="0 0 12.71 1.53"
 xmlns:xlink="http://www.w3.org/1999/xlink"
 xmlns:xodm="http://www.corel.com/coreldraw/odm/2003">
 <defs>
  <style type="text/css">
   <![CDATA[
    .fil0 {fill:#F22488}
   ]]>
  </style>
 </defs>
 <g id="Capa_x0020_1">
  <metadata id="CorelCorpID_0Corel-Layer"/>
  <path class="fil0" d="M0.17 1.53l0.82 0 0.42 0 1.42 0 1.41 0 1.41 0 1.41 0 1.42 0 1.41 0 1.1 0 0.31 0 1.24 0 0.17 0 0 -0.17 0 -0.62 0 -0.03c0,-0.39 -0.31,-0.71 -0.7,-0.71l0 0c-0.24,0 -0.44,0.11 -0.57,0.29 -0.04,0.04 -0.08,0.07 -0.14,0.07 -0.06,0 -0.1,-0.03 -0.14,-0.07 -0.12,-0.18 -0.33,-0.29 -0.57,-0.29l0 0c-0.23,0 -0.44,0.11 -0.57,0.29 -0.03,0.04 -0.08,0.07 -0.13,0.07 -0.06,0 -0.11,-0.03 -0.14,-0.07 -0.13,-0.18 -0.34,-0.29 -0.57,-0.29l0 0c-0.23,0 -0.44,0.11 -0.57,0.29 -0.03,0.04 -0.08,0.07 -0.13,0.07 -0.06,0 -0.11,-0.03 -0.14,-0.07 -0.13,-0.18 -0.34,-0.29 -0.57,-0.29l0 0c-0.23,0 -0.44,0.11 -0.57,0.29 -0.03,0.04 -0.08,0.07 -0.14,0.07 -0.05,0 -0.1,-0.03 -0.13,-0.07 -0.13,-0.18 -0.34,-0.29 -0.57,-0.29l0 0c-0.24,0 -0.44,0.11 -0.57,0.29 -0.04,0.04 -0.08,0.07 -0.14,0.07 -0.06,0 -0.1,-0.03 -0.14,-0.07 -0.13,-0.18 -0.33,-0.29 -0.57,-0.29l0 0c-0.23,0 -0.44,0.11 -0.57,0.29 -0.03,0.04 -0.08,0.07 -0.13,0.07 -0.06,0 -0.11,-0.03 -0.14,-0.07 -0.13,-0.18 -0.34,-0.29 -0.57,-0.29l0 0c-0.23,0 -0.44,0.11 -0.57,0.29 -0.03,0.04 -0.08,0.07 -0.13,0.07 -0.06,0 -0.11,-0.03 -0.14,-0.07 -0.13,-0.18 -0.34,-0.29 -0.57,-0.29l0 0c-0.23,0 -0.44,0.11 -0.57,0.29 -0.03,0.04 -0.08,0.07 -0.14,0.07 -0.05,0 -0.1,-0.03 -0.13,-0.07 -0.13,-0.18 -0.34,-0.29 -0.57,-0.29l0 0c-0.39,0 -0.71,0.32 -0.71,0.71l0 0.43 0 0.22 0 0.17 0.17 0z"/>
 </g>
</svg>
