<?xml version="1.0" encoding="UTF-8"?>
<!DOCTYPE svg PUBLIC "-//W3C//DTD SVG 1.1//EN" "http://www.w3.org/Graphics/SVG/1.1/DTD/svg11.dtd">
<!-- Creator: CorelDRAW 2021 (64-Bit) -->
<svg xmlns="http://www.w3.org/2000/svg" xml:space="preserve" width="38.6102mm" height="0.9178mm" version="1.1" style="shape-rendering:geometricPrecision; text-rendering:geometricPrecision; image-rendering:optimizeQuality; fill-rule:evenodd; clip-rule:evenodd"
viewBox="0 0 212.91 5.06"
 xmlns:xlink="http://www.w3.org/1999/xlink"
 xmlns:xodm="http://www.corel.com/coreldraw/odm/2003">
 <defs>
  <style type="text/css">
   <![CDATA[
    .fil0 {fill:#ED3989}
   ]]>
  </style>
 </defs>
 <g id="Capa_x0020_1">
  <metadata id="CorelCorpID_0Corel-Layer"/>
  <g id="_2423746119696">
   <path class="fil0" d="M-0 2.53c59.36,-0.49 81.47,-0.77 97.51,-0.85 -0.03,0.28 -0.04,0.56 -0.04,0.85 0,0.29 0.01,0.57 0.04,0.85 -16.03,-0.08 -38.15,-0.36 -97.51,-0.85zm115.41 -0.85c16.03,0.08 38.15,0.36 97.51,0.85l0 0c-59.36,0.49 -81.48,0.77 -97.51,0.85 0.03,-0.28 0.04,-0.56 0.04,-0.85 0,-0.29 -0.01,-0.57 -0.04,-0.85z"/>
   <path class="fil0" d="M109.01 2.53c0,-1.4 -1.13,-2.53 -2.53,-2.53 -1.4,0 -2.53,1.13 -2.53,2.53 0,1.4 1.13,2.53 2.53,2.53 1.4,0 2.53,-1.13 2.53,-2.53z"/>
   <path class="fil0" d="M114.02 2.53c0,-0.85 -0.69,-1.54 -1.54,-1.54 -0.85,0 -1.54,0.69 -1.54,1.54 0,0.85 0.69,1.54 1.54,1.54 0.85,0 1.54,-0.69 1.54,-1.54z"/>
   <path class="fil0" d="M98.9 2.53c0,-0.85 0.69,-1.54 1.54,-1.54 0.85,0 1.54,0.69 1.54,1.54 0,0.85 -0.69,1.54 -1.54,1.54 -0.85,0 -1.54,-0.69 -1.54,-1.54z"/>
  </g>
 </g>
</svg>
