<?xml version="1.0" encoding="UTF-8"?>
<!DOCTYPE svg PUBLIC "-//W3C//DTD SVG 1.1//EN" "http://www.w3.org/Graphics/SVG/1.1/DTD/svg11.dtd">
<!-- Creator: CorelDRAW 2021 (64-Bit) -->
<svg xmlns="http://www.w3.org/2000/svg" xml:space="preserve" width="345px" height="8px" version="1.1" style="shape-rendering:geometricPrecision; text-rendering:geometricPrecision; image-rendering:optimizeQuality; fill-rule:evenodd; clip-rule:evenodd"
viewBox="0 0 10.06 0.24"
 xmlns:xlink="http://www.w3.org/1999/xlink"
 xmlns:xodm="http://www.corel.com/coreldraw/odm/2003">
 <defs>
  <style type="text/css">
   <![CDATA[
    .fil0 {fill:#F58634;fill-rule:nonzero}
   ]]>
  </style>
 </defs>
 <g id="Capa_x0020_1">
  <metadata id="CorelCorpID_0Corel-Layer"/>
  <g id="_1711239329552">
   <path class="fil0" d="M0 0.12c2.8,-0.02 3.85,-0.04 4.61,-0.04 0,0.01 -0.01,0.03 -0.01,0.04 0,0.01 0.01,0.03 0.01,0.04 -0.76,0 -1.81,-0.02 -4.61,-0.04zm5.45 -0.04c0.76,0 1.8,0.02 4.61,0.04l0 0c-2.81,0.02 -3.85,0.04 -4.61,0.04 0,-0.01 0,-0.03 0,-0.04 0,-0.01 0,-0.03 0,-0.04z"/>
   <path class="fil0" d="M5.15 0.12c0,-0.07 -0.05,-0.12 -0.12,-0.12 -0.07,0 -0.12,0.05 -0.12,0.12 0,0.07 0.05,0.12 0.12,0.12 0.07,0 0.12,-0.05 0.12,-0.12z"/>
   <path class="fil0" d="M5.39 0.12c0,-0.04 -0.04,-0.07 -0.08,-0.07 -0.04,0 -0.07,0.03 -0.07,0.07 0,0.04 0.03,0.07 0.07,0.07 0.04,0 0.08,-0.03 0.08,-0.07z"/>
   <path class="fil0" d="M4.67 0.12c0,-0.04 0.03,-0.07 0.07,-0.07 0.04,0 0.08,0.03 0.08,0.07 0,0.04 -0.04,0.07 -0.08,0.07 -0.04,0 -0.07,-0.03 -0.07,-0.07z"/>
  </g>
 </g>
</svg>
